<?xml version="1.0" encoding="UTF-8"?>
<svg version="1.1" xmlns="http://www.w3.org/2000/svg" width="1024" height="1024">
<path d="M0 0 C337.92 0 675.84 0 1024 0 C1024 337.92 1024 675.84 1024 1024 C686.08 1024 348.16 1024 0 1024 C0 686.08 0 348.16 0 0 Z " fill="#FCFCFC" transform="translate(0,0)"/>
<path d="M0 0 C0.98871094 0.51175781 1.97742188 1.02351563 2.99609375 1.55078125 C27.03732798 14.20226763 49.150208 32.76540124 66 54 C66.81855469 55.01320313 67.63710938 56.02640625 68.48046875 57.0703125 C90.22359389 84.31150501 103.15461946 117.84003928 109 152 C109.22647217 153.31339355 109.22647217 153.31339355 109.45751953 154.65332031 C121.55062547 228.41213474 100.27962234 304.97156365 57.27294922 365.23193359 C48.75593958 377.06165814 39.70728493 388.31575266 29.7734375 398.98046875 C27.76143983 401.14458866 25.83010408 403.36339282 23.91015625 405.609375 C19.39327832 410.79162001 14.52544957 415.62439643 9.6574707 420.47290039 C8.06541034 422.05959946 6.4787701 423.65157742 4.89257812 425.24414062 C-0.02818791 430.16812388 -4.98632727 435.00003786 -10.28100586 439.52612305 C-12.86006165 441.73742255 -15.32662345 444.05948422 -17.8125 446.375 C-22.53631344 450.74360555 -27.41585612 454.85918263 -32.4296875 458.89453125 C-34.78936484 460.82745843 -37.05651151 462.82296619 -39.3125 464.875 C-45.28625439 470.23551943 -51.64896426 475.10040246 -58 480 C-58.65532715 480.50692383 -59.3106543 481.01384766 -59.98583984 481.53613281 C-76.32764876 494.16371521 -93.00628664 506.32653245 -109.76611328 518.39111328 C-114.2668901 521.63265637 -118.76213198 524.88187907 -123.25683594 528.13183594 C-126.96348943 530.81109305 -130.67407886 533.48446164 -134.39453125 536.14453125 C-146.10722508 544.53335251 -157.59278337 553.20088364 -169 562 C-169.68642578 562.52899902 -170.37285156 563.05799805 -171.08007812 563.60302734 C-178.52008808 569.35091196 -185.77313449 575.28102515 -192.921875 581.38671875 C-195.7270732 583.77882269 -198.57463157 586.11455851 -201.4375 588.4375 C-210.96458034 596.2033879 -220.26471108 604.22295731 -229.3046875 612.55078125 C-231.43992207 614.49105962 -233.6003385 616.38245756 -235.78515625 618.265625 C-240.22855424 622.14367994 -244.40477934 626.25720348 -248.5625 630.4375 C-249.27857422 631.14970703 -249.99464844 631.86191406 -250.73242188 632.59570312 C-255.36112012 637.23282484 -259.74613313 642.01818494 -264 647 C-264.48718506 647.56549561 -264.97437012 648.13099121 -265.47631836 648.71362305 C-266.8834991 650.34782343 -268.28617885 651.9857734 -269.6875 653.625 C-270.72779139 654.84120844 -271.76815823 656.05735236 -272.80859375 657.2734375 C-273.33437012 657.88799805 -273.86014648 658.50255859 -274.40185547 659.13574219 C-275.98430606 660.9816928 -277.57146204 662.8234841 -279.16015625 664.6640625 C-284.14059266 670.43961572 -289.06322273 676.23828287 -293.79296875 682.22265625 C-297.30234575 686.63888111 -300.87225159 691.00582429 -304.43334961 695.38037109 C-304.96581299 696.03473145 -305.49827637 696.6890918 -306.046875 697.36328125 C-306.56056641 697.9867041 -307.07425781 698.61012695 -307.60351562 699.25244141 C-308.80629624 700.75759939 -309.92058272 702.33270405 -311.015625 703.91796875 C-313.55150527 706.57864628 -315.40248316 706.75471476 -319 707 C-324.22975027 700.74321867 -329.26592595 694.37486936 -334.1875 687.875 C-340.88714012 679.04845865 -347.8935815 670.5005006 -355 662 C-355.96880361 660.83337785 -356.93755657 659.66671364 -357.90625 658.5 C-363.89308988 651.32323582 -370.13861669 644.42365809 -376.51806641 637.59521484 C-378.46068851 635.50409577 -380.37884769 633.39131338 -382.29760742 631.27832031 C-389.11539316 623.78151042 -396.08196971 616.5368831 -403.78125 609.9375 C-405.9834809 608.01442513 -408.13219234 606.03998422 -410.27490234 604.05102539 C-415.34782971 599.34620342 -420.51777491 594.83630312 -425.91015625 590.49609375 C-428.24611168 588.60901977 -430.56368697 586.70659272 -432.87109375 584.78515625 C-441.33102403 577.74738644 -449.91421785 570.92374875 -458.6875 564.28125 C-462.38237084 561.48149359 -466.03556175 558.63184702 -469.68188477 555.76928711 C-478.54187924 548.8195761 -487.57612601 542.15819557 -496.74121094 535.61767578 C-499.02455696 533.98241306 -501.2987382 532.33516303 -503.5703125 530.68359375 C-511.29750916 525.06764849 -519.07074954 519.5420341 -526.96362305 514.16137695 C-532.78776468 510.17772447 -538.50581763 506.0554925 -544.21435547 501.90844727 C-549.31847121 498.20338751 -554.45979489 494.55676225 -559.625 490.9375 C-567.88513992 485.13506441 -575.9703967 479.11648145 -584 473 C-584.57202148 472.56445801 -585.14404297 472.12891602 -585.73339844 471.68017578 C-589.50299795 468.80488888 -593.2550127 465.90726314 -597 463 C-597.56428711 462.56333008 -598.12857422 462.12666016 -598.70996094 461.67675781 C-605.70965723 456.25423793 -612.59722112 450.73072463 -619.32519531 444.97363281 C-622.58385946 442.18586245 -625.89236893 439.48138624 -629.25 436.8125 C-640.5169942 427.61928589 -650.82789827 417.24944047 -661.125 407 C-661.81094238 406.31873047 -662.49688477 405.63746094 -663.20361328 404.93554688 C-667.67138092 400.45354022 -671.89013281 395.81107676 -676 391 C-676.49757813 390.42507813 -676.99515625 389.85015625 -677.5078125 389.2578125 C-692.2113369 372.14969028 -704.72844928 353.07333835 -715 333 C-715.37672852 332.27103516 -715.75345703 331.54207031 -716.14160156 330.79101562 C-736.35304779 291.26258717 -746.18936519 246.84506718 -746.18530273 202.60083008 C-746.18747637 199.96614085 -746.20566593 197.33188059 -746.22460938 194.69726562 C-746.27907604 178.64644442 -745.22243898 162.7068443 -741.75 147 C-741.53239014 145.99710938 -741.31478027 144.99421875 -741.09057617 143.9609375 C-729.29738738 91.0819356 -700.59902585 44.35399446 -656 13 C-655.42781738 12.59378418 -654.85563477 12.18756836 -654.26611328 11.76904297 C-637.05851229 -0.29629253 -617.80338003 -9.16883847 -598 -16 C-596.85789062 -16.40734375 -595.71578125 -16.8146875 -594.5390625 -17.234375 C-539.62393706 -35.58647348 -475.50257436 -26.15775058 -424.35400391 -1.17529297 C-411.08406328 5.45004349 -398.86959106 13.11164922 -387 22 C-386.37077637 22.47083008 -385.74155273 22.94166016 -385.09326172 23.42675781 C-377.56740158 29.10447519 -370.48352888 35.12716213 -363.62109375 41.58984375 C-361.05232065 44.01092403 -361.05232065 44.01092403 -358.36328125 46.08984375 C-356.21991696 47.82224893 -354.51974598 49.52454391 -352.75 51.625 C-350.1895363 54.63052284 -347.56397139 57.54660951 -344.875 60.4375 C-334.71703487 71.72220188 -325.92842201 84.07277961 -318 97 C-317.33355469 96.00742187 -316.66710937 95.01484375 -315.98046875 93.9921875 C-307.49717032 81.44834747 -298.57283503 69.54959158 -288.26171875 58.4453125 C-286.3095112 56.3346356 -284.42693722 54.18772443 -282.5625 52 C-275.58104417 44.00484332 -268.03052318 36.76986019 -259.72265625 30.16796875 C-257.95701076 28.76203869 -256.21296177 27.32837767 -254.49609375 25.86328125 C-184.31026357 -33.82146289 -80.55440509 -43.37544889 0 0 Z " fill="#020202" transform="translate(829,177)"/>
<path d="M0 0 C8.88055113 8.05915264 16.89214304 16.54112452 24.28125 26.00390625 C25.05855469 26.96425781 25.83585937 27.92460937 26.63671875 28.9140625 C31.71955245 35.30598851 36.28518751 41.91691193 40.65625 48.81640625 C41.15616455 49.60466797 41.6560791 50.39292969 42.17114258 51.20507812 C43.57595616 53.45733371 44.96467348 55.69863184 46.28125 58.00390625 C46.60930944 58.54771176 46.93736888 59.09151727 47.27536951 59.65180174 C50.32480803 65.10184127 50.84768218 69.52637637 50.77344131 75.70278168 C50.77805669 76.65412495 50.78267207 77.60546822 50.78742731 78.58564007 C50.79801634 81.77396988 50.78006957 84.96149193 50.76226807 88.14978027 C50.76401244 90.45832524 50.76751488 92.76686944 50.77262473 95.07540941 C50.78157479 101.41951416 50.7655603 107.76334912 50.74551249 114.10741949 C50.72806121 120.24596204 50.7333541 126.38450695 50.73623985 132.52306674 C50.74149237 145.07843798 50.72814158 157.63372494 50.70417023 170.18907166 C50.68049815 182.61954668 50.66510564 195.0499866 50.66075897 207.48048401 C50.66048401 208.25351559 50.66020906 209.02654718 50.65992576 209.82300397 C50.65857242 213.74887733 50.65736689 217.67475072 50.65621826 221.60062414 C50.64781771 249.40402071 50.62087136 277.20737144 50.58300781 305.01074219 C50.5462675 332.02050533 50.51793431 359.03025593 50.50097656 386.04003906 C50.50045046 386.87267005 50.49992435 387.70530104 50.49938231 388.56316327 C50.4941082 396.92482338 50.48900495 405.28648358 50.48402687 413.64814387 C50.47388215 430.68164899 50.46259714 447.7151533 50.45062256 464.74865723 C50.44979882 465.92340398 50.44979882 465.92340398 50.44895844 467.12188298 C50.41215883 519.41591005 50.34869517 571.7099108 50.28125 624.00390625 C46.97635096 620.73109029 43.89263887 617.43518644 40.96875 613.81640625 C39.793125 612.36621094 39.793125 612.36621094 38.59375 610.88671875 C36.54221609 608.32923223 34.50445577 605.76148479 32.46875 603.19140625 C24.6870088 593.44878978 16.47222013 584.07580695 7.9921875 574.9375 C6.16750578 572.96295249 4.35994302 570.9820052 2.5703125 568.9765625 C-3.33880012 562.37930811 -9.54897361 556.31852026 -16.15087891 550.41894531 C-17.77720328 548.95115084 -19.38113999 547.46198657 -20.98046875 545.96484375 C-27.68391314 539.69035625 -34.55017858 533.74813407 -41.71875 528.00390625 C-42.93472883 527.00919846 -44.14949738 526.01300999 -45.36328125 525.015625 C-53.57547061 518.27804808 -61.91448117 511.73867423 -70.375 505.31640625 C-74.05930597 502.51659973 -77.70934526 499.67540305 -81.35205078 496.82177734 C-97.1530265 484.44876325 -113.41922244 472.70802363 -129.71875 461.00390625 C-130.33556641 460.56095215 -130.95238281 460.11799805 -131.58789062 459.66162109 C-136.94053429 455.82123205 -142.30223379 451.99439363 -147.6953125 448.2109375 C-157.66413635 441.21418535 -167.50024683 434.05516933 -177.28515625 426.80371094 C-179.74846355 424.9819311 -182.21706717 423.16757195 -184.6875 421.35546875 C-198.70527105 411.07077404 -212.43335192 400.51591549 -225.88525391 389.50097656 C-227.51569039 388.16970672 -229.15379819 386.84784456 -230.79296875 385.52734375 C-236.34135294 381.04747863 -241.67957142 376.3977975 -246.91796875 371.55859375 C-249.03075725 369.63144776 -251.16570925 367.7623013 -253.3359375 365.90234375 C-258.31100928 361.56035644 -262.98770494 356.92101548 -267.65454102 352.25341797 C-269.14516615 350.76497388 -270.64362017 349.28473348 -272.14257812 347.8046875 C-277.71985795 342.25907652 -282.89809196 336.56909379 -287.7902832 330.39379883 C-289.60117247 328.14961665 -291.49241065 326.03981686 -293.46875 323.94140625 C-326.58973364 286.86960946 -344.94251184 236.42070912 -352.71875 188.00390625 C-352.89664063 186.92568604 -352.89664063 186.92568604 -353.078125 185.82568359 C-356.69867676 162.75005384 -356.33424076 137.04912356 -352.71875 114.00390625 C-352.62223145 113.33085449 -352.52571289 112.65780273 -352.42626953 111.96435547 C-344.87350571 59.69030044 -319.65654917 12.56725324 -277.39453125 -19.5390625 C-199.21767238 -77.68899486 -93.56950066 -68.48127765 0 0 Z " fill="#FCFCFC" transform="translate(452.71875,226.99609375)"/>
<path d="M0 0 C1.38333627 0.91462939 2.71683892 1.90407197 4.03515625 2.91015625 C2.18176819 4.76354431 0.33976827 6.50851335 -1.65234375 8.22265625 C-4.23424388 10.731203 -4.23424388 10.731203 -4.40234375 14.09765625 C-4.22782812 17.04051627 -4.22782812 17.04051627 -1.96484375 18.91015625 C1.60589677 19.1848286 4.34723208 19.16512815 7.72265625 17.9140625 C11.83529922 16.66766009 15.51359704 16.56677427 19.78515625 16.59765625 C20.98495117 16.60502808 20.98495117 16.60502808 22.20898438 16.61254883 C28.25313568 16.73222892 33.45004314 17.49257195 39.03515625 19.91015625 C39.82664062 20.21566406 40.618125 20.52117187 41.43359375 20.8359375 C58.89964743 28.41190716 70.24301037 45.84512491 77.03515625 62.91015625 C78.89316176 68.31017895 79.42148145 73.13387931 79.41015625 78.78515625 C79.4088269 79.97443726 79.4088269 79.97443726 79.4074707 81.18774414 C79.27081164 87.93537223 78.1777441 93.60256379 73.3984375 98.6328125 C72.94855469 99.05433594 72.49867188 99.47585938 72.03515625 99.91015625 C71.43703125 99.35328125 70.83890625 98.79640625 70.22265625 98.22265625 C63.51372558 93.35539282 56.43700225 89.70989254 48.03515625 90.91015625 C45.90644932 91.8713353 45.90644932 91.8713353 45.03515625 93.91015625 C44.36848958 96.91015625 44.36848958 96.91015625 45.03515625 99.91015625 C47.27995775 101.85565088 49.58095445 102.74213227 52.34765625 103.765625 C60.77545049 106.91320059 66.59872667 110.85885812 71.03515625 118.91015625 C72.78407995 123.71969643 73.24344049 127.80719237 73.03515625 132.91015625 C72.46667969 132.69359375 71.89820313 132.47703125 71.3125 132.25390625 C66.44491719 130.49865101 62.27496069 129.19096741 57.03515625 129.91015625 C54.40799048 131.37013612 54.40799048 131.37013612 53.03515625 133.91015625 C52.87537413 136.93866744 52.87537413 136.93866744 54.03515625 139.91015625 C56.95564873 141.70393017 56.95564873 141.70393017 60.59765625 142.84765625 C74.34249118 148.15170842 82.84761322 159.67997662 89.03515625 172.78515625 C92.11060931 179.81799376 93.40546464 186.61034228 93.34765625 194.22265625 C93.34491699 194.95959717 93.34217773 195.69653809 93.33935547 196.45581055 C93.20845635 203.34456472 92.09658697 209.84683071 88.953125 216.04296875 C87.73917574 218.5121932 87.68679708 220.19295475 88.03515625 222.91015625 C88.9711294 224.92966687 88.9711294 224.92966687 91.03515625 225.91015625 C94.57539767 225.98782754 94.57539767 225.98782754 98.03515625 224.91015625 C99.99803449 222.9927677 99.99803449 222.9927677 101.03515625 220.91015625 C102.64390625 221.25046875 102.64390625 221.25046875 104.28515625 221.59765625 C107.8774607 222.21846026 107.8774607 222.21846026 110.234375 220.83984375 C112.80609547 218.0840305 112.53638325 216.06896961 112.59765625 212.34765625 C113.06921067 202.39375747 114.81738944 194.17804644 122.03515625 186.91015625 C124.35118101 185.15866253 126.3464285 184.09940122 129.03515625 182.91015625 C129.69515625 183.24015625 130.35515625 183.57015625 131.03515625 183.91015625 C130.68453125 184.42578125 130.33390625 184.94140625 129.97265625 185.47265625 C128.66412102 188.87484784 129.30568125 191.39541309 130.03515625 194.91015625 C131.17507941 196.2284301 131.17507941 196.2284301 134.09765625 196.59765625 C139.5807308 195.64029403 140.81271772 192.81587922 143.98046875 188.46484375 C147.49655442 184.09313267 151.76878734 181.66561255 157.03515625 179.91015625 C168.65484092 178.90479252 177.93454518 181.65270692 187.03515625 188.91015625 C198.70702258 198.8687211 205.06815583 212.7762959 207.03515625 227.91015625 C208.30543178 244.36126553 204.28553519 261.16282207 193.84765625 274.22265625 C185.09605583 283.4947263 172.4270804 289.53580054 159.703125 290.04296875 C154.36571238 290.03098803 149.14160457 290.01415897 143.84765625 289.28515625 C139.96836703 288.49716605 139.96836703 288.49716605 137.03515625 290.91015625 C136.50423388 294.39907468 136.56044398 296.19808784 138.53515625 299.16015625 C146.84970151 304.98033793 160.3870752 304.06353216 170.03515625 302.91015625 C175.06864182 301.64687574 179.47498292 299.35491584 184.03515625 296.91015625 C185.69266257 296.22102998 187.35643173 295.54584973 189.03515625 294.91015625 C184.92575543 301.8288929 180.3605024 308.27649965 175.47265625 314.66015625 C174.9310083 315.36841553 174.38936035 316.0766748 173.83129883 316.80639648 C170.36396697 321.29634189 166.75965653 325.6311815 163.03515625 329.91015625 C162.36967773 329.76682861 161.70419922 329.62350098 161.01855469 329.47583008 C155.04132023 328.20056298 149.12467359 327.40250021 143.03515625 326.91015625 C142.82761719 325.73582031 142.62007812 324.56148437 142.40625 323.3515625 C140.25235435 311.8480751 137.03467571 301.48909438 132.03515625 290.91015625 C131.55046875 289.88148438 131.06578125 288.8528125 130.56640625 287.79296875 C126.13957043 279.11145183 119.99302412 271.69486451 113.03515625 264.91015625 C113.77765625 265.07515625 114.52015625 265.24015625 115.28515625 265.41015625 C126.49749314 266.9051345 135.71106541 265.38392895 146.03515625 260.91015625 C146.63328125 261.77640625 147.23140625 262.64265625 147.84765625 263.53515625 C151.90039588 268.38458828 158.02299366 272.09774677 164.234375 273.35546875 C166.28779186 273.47685797 166.28779186 273.47685797 169.03515625 272.91015625 C171.30637996 270.97929171 171.30637996 270.97929171 171.84765625 267.72265625 C171.44615958 263.84611249 171.44615958 263.84611249 168.7890625 262.140625 C166.82857247 260.96220291 164.85661024 259.8027063 162.875 258.66015625 C157.84116464 255.55815041 154.91441141 252.02836186 152.66015625 246.59765625 C151.28294386 238.47210315 151.76199059 232.78925436 155.14453125 225.25 C156.39991702 221.95185932 156.3383089 219.39641171 156.03515625 215.91015625 C150.42396462 214.5525417 150.42396462 214.5525417 145.28515625 216.53515625 C138.84626961 224.48008756 138.6354999 235.02152343 139.28515625 244.6953125 C139.03515625 247.91015625 139.03515625 247.91015625 137.22265625 250.28125 C132.17950667 254.03659531 126.0406362 253.54784432 120.03515625 252.91015625 C114.99366199 251.3721739 110.10230151 249.51963097 105.91796875 246.26171875 C103.00770774 244.17261023 100.50166108 244.58918358 97.03515625 244.91015625 C94.71829259 246.78660132 94.71829259 246.78660132 94.84765625 249.84765625 C94.90565393 252.95108704 94.90565393 252.95108704 96.03515625 255.91015625 C95.44089844 255.76578125 94.84664062 255.62140625 94.234375 255.47265625 C84.5466098 253.30307897 74.59989411 252.79276021 65.03515625 255.91015625 C62.25317179 257.43535747 62.25317179 257.43535747 61.03515625 259.91015625 C60.94623286 263.04378343 60.94623286 263.04378343 62.03515625 265.91015625 C65.51824441 268.23221502 66.58533639 267.81022101 70.53515625 267.21484375 C84.98656062 265.45357884 96.47271171 268.42906514 107.9375 277.3984375 C120.7374814 289.09547266 127.56668976 308.15056797 130.03515625 324.91015625 C130.07557563 326.57633273 130.09088715 328.24442162 130.03515625 329.91015625 C129.38289063 330.14089844 128.730625 330.37164063 128.05859375 330.609375 C118.95382339 334.0068778 114.17715714 337.7436948 110.015625 346.60546875 C106.29398086 355.35355657 107.49658268 363.9030398 110.96484375 372.53515625 C111.9362564 374.69069966 112.95460606 376.80746399 114.03515625 378.91015625 C107.23084679 384.75372435 100.37263448 390.52018795 93.34765625 396.09765625 C92.74808105 396.57887939 92.14850586 397.06010254 91.53076172 397.5559082 C87.27153546 400.91015625 87.27153546 400.91015625 85.03515625 400.91015625 C84.84179688 400.06710937 84.6484375 399.2240625 84.44921875 398.35546875 C84.18882812 397.25976562 83.9284375 396.1640625 83.66015625 395.03515625 C83.40492188 393.94460938 83.1496875 392.8540625 82.88671875 391.73046875 C82.2460941 388.8060717 82.2460941 388.8060717 80.03515625 386.91015625 C77.82442648 386.66761812 77.82442648 386.66761812 75.41015625 386.78515625 C74.59289062 386.80320312 73.775625 386.82125 72.93359375 386.83984375 C72.30710937 386.86304688 71.680625 386.88625 71.03515625 386.91015625 C70.92470094 393.12019895 71.20670653 398.85307539 72.453125 404.95703125 C72.76692098 407.59473659 72.77566104 409.34363395 72.03515625 411.91015625 C68.57683717 415.99148134 62.61382614 422.58938523 57.03320312 423.08959961 C56.28103516 423.06003174 55.52886719 423.03046387 54.75390625 423 C53.91722412 422.97760254 53.08054199 422.95520508 52.21850586 422.93212891 C51.33300049 422.90425293 50.44749512 422.87637695 49.53515625 422.84765625 C36.88396189 422.67430596 27.85330601 425.21398222 17.03515625 431.91015625 C16.22046875 432.40902344 15.40578125 432.90789062 14.56640625 433.421875 C10.18472225 436.30956728 10.18472225 436.30956728 8.28515625 441.03515625 C9.20080151 444.54512975 9.99665002 445.91113899 13.03515625 447.91015625 C17.96239166 447.62918733 20.65398782 446.06127085 24.47265625 443.03515625 C28.58825897 439.92049495 32.09080961 437.42373175 37.03515625 435.91015625 C39.2265625 436.3515625 39.2265625 436.3515625 41.03515625 436.91015625 C33.77331572 442.66574655 26.41049583 448.13763974 18.64892578 453.20385742 C15.49373103 455.26410061 12.38326452 457.35665365 9.3359375 459.57421875 C8.45421875 460.21025024 8.45421875 460.21025024 7.5546875 460.85913086 C5.94418882 462.02761768 4.342875 463.20873373 2.7421875 464.390625 C0.03515625 465.91015625 0.03515625 465.91015625 -2.125 465.83984375 C-4.25159699 464.76525758 -5.5511391 463.55411966 -7.21484375 461.84765625 C-18.3663845 451.62717393 -32.11015713 448.11108964 -46.83789062 448.70898438 C-50.37003807 449.0430626 -53.18929571 450.18715645 -56.23828125 451.9375 C-58.12226661 452.99884017 -59.85679137 453.46904397 -61.96484375 453.91015625 C-62.23296875 453.00136719 -62.50109375 452.09257813 -62.77734375 451.15625 C-69.92157522 428.24300762 -82.26695278 410.50317396 -103.65625 398.54296875 C-117.12533696 391.89588687 -133.8710985 385.43926015 -148.96484375 389.91015625 C-149.04581178 391.36758088 -149.10402149 392.82628432 -149.15234375 394.28515625 C-149.18714844 395.09726562 -149.22195313 395.909375 -149.2578125 396.74609375 C-149.16113281 397.46023438 -149.06445312 398.174375 -148.96484375 398.91015625 C-145.35770122 401.31491794 -143.68823147 401.1046755 -139.40234375 401.16015625 C-120.50769226 401.97710903 -102.84125888 411.28299607 -89.96484375 424.91015625 C-77.74101213 439.6907654 -72.56144597 457.14034481 -70.96484375 475.91015625 C-70.87976563 476.8434375 -70.7946875 477.77671875 -70.70703125 478.73828125 C-69.96243998 494.92073153 -75.86211911 512.03180315 -86.21484375 524.34765625 C-90.90730937 529.1991885 -96.06323782 532.68206886 -101.96484375 535.91015625 C-102.77050781 536.37164063 -103.57617188 536.833125 -104.40625 537.30859375 C-117.21855872 543.925279 -131.96162891 545.25850542 -146.15234375 545.34765625 C-147.19084473 545.35772705 -148.2293457 545.36779785 -149.29931641 545.37817383 C-150.29624512 545.36681396 -151.29317383 545.3554541 -152.3203125 545.34375 C-153.19324951 545.33400146 -154.06618652 545.32425293 -154.96557617 545.31420898 C-157.96484375 544.91015625 -157.96484375 544.91015625 -166.96484375 541.91015625 C-166.96484375 535.64015625 -166.96484375 529.37015625 -166.96484375 522.91015625 C-164.65484375 521.92015625 -162.34484375 520.93015625 -159.96484375 519.91015625 C-156.63700191 514.40200425 -155.93267975 508.20678343 -154.96484375 501.91015625 C-154.39749512 502.0695166 -153.83014648 502.22887695 -153.24560547 502.39306641 C-139.46297786 505.51783683 -124.99187231 503.12294739 -112.9140625 496.1484375 C-106.3433604 491.76500565 -101.89945369 486.72865644 -97.96484375 479.91015625 C-97.40796875 478.94722656 -97.40796875 478.94722656 -96.83984375 477.96484375 C-94.70178231 473.7078107 -94.7177318 470.45320691 -95.96484375 465.91015625 C-98.77268025 463.65291345 -98.77268025 463.65291345 -101.91015625 463.8359375 C-105.26486196 464.66615057 -105.26486196 464.66615057 -107.01953125 468.078125 C-107.6413519 469.4110508 -108.24746621 470.75138697 -108.83984375 472.09765625 C-113.48811921 481.62762609 -118.76238994 485.41018562 -128.66796875 489.1484375 C-132.94359554 490.56637496 -136.68429419 491.12066521 -141.21484375 491.22265625 C-142.2925 491.26003906 -143.37015625 491.29742188 -144.48046875 491.3359375 C-148.90860559 490.79483109 -152.49281204 489.80145116 -155.96484375 486.91015625 C-156.94694804 483.95096332 -157.32859064 481.99527777 -157.52734375 478.97265625 C-158.37928712 471.42911348 -160.11284189 464.58609441 -162.58984375 457.41015625 C-162.90381104 456.4962915 -163.21777832 455.58242676 -163.54125977 454.64086914 C-165.0680526 450.19850529 -165.0680526 450.19850529 -166.96484375 445.91015625 C-167.05686497 443.66351194 -167.0823418 441.41405192 -167.07836914 439.16552734 C-167.07851517 438.47273178 -167.07866119 437.77993622 -167.07881165 437.06614685 C-167.07811393 434.77193084 -167.07032817 432.47779561 -167.0625 430.18359375 C-167.06063532 428.59461512 -167.05921165 427.00563591 -167.05821228 425.41665649 C-167.05439106 421.231063 -167.04456414 417.04550412 -167.0335083 412.85992432 C-167.02328569 408.59021472 -167.01871284 404.32049955 -167.01367188 400.05078125 C-167.00294153 391.67055702 -166.98586983 383.29036094 -166.96484375 374.91015625 C-165.30437012 375.64250488 -165.30437012 375.64250488 -163.61035156 376.38964844 C-158.45619738 378.53939879 -154.34729396 378.70430632 -148.96484375 376.91015625 C-146.43159699 378.08482337 -144.03187606 379.31898387 -141.58984375 380.66015625 C-121.54950812 391.08618145 -101.48016297 389.02845272 -80.54296875 382.58984375 C-69.90710048 379.1194463 -58.85307926 374.66223912 -49.609375 368.28515625 C-45.71547013 366.26055579 -41.70278287 365.80865471 -37.40234375 365.09765625 C-18.13877493 361.50482024 -5.16260913 350.67067832 6.03515625 334.91015625 C9.87228083 329.01376147 13.46259103 322.96905454 17.03515625 316.91015625 C18.03389525 315.24273363 19.03320534 313.57565081 20.03515625 311.91015625 C31.64252335 315.59847851 40.93472187 320.73132004 48.03515625 330.91015625 C55.84416969 346.14063904 56.23709302 364.4650001 52.0078125 380.9296875 C48.93486136 390.34599962 44.53243602 397.61178839 35.91015625 402.78515625 C29.41041085 405.32853489 22.12399849 406.32178036 15.41015625 404.00390625 C11.1618456 401.98336826 7.71093929 399.75765107 4.28515625 396.53515625 C1.56138489 394.01126022 1.56138489 394.01126022 -2.33984375 393.97265625 C-4.85831763 394.66093469 -4.85831763 394.66093469 -5.96484375 395.91015625 C-6.47473916 401.574029 -6.47473916 401.574029 -4.33984375 406.66015625 C-1.73260876 409.13016834 0.9775346 411.03388842 4.03515625 412.91015625 C4.03515625 416.22322197 3.58272836 418.29221857 1.36328125 420.796875 C-4.66974832 426.20618911 -9.19160491 428.41627171 -17.34765625 428.22265625 C-24.8467931 427.32723692 -31.47721354 422.9211613 -36.96484375 417.91015625 C-39.96484375 413.78515625 -39.96484375 413.78515625 -39.96484375 410.91015625 C-43.38140399 410.74338343 -43.38140399 410.74338343 -46.96484375 410.91015625 C-49.33867045 412.87245838 -49.33867045 412.87245838 -49.40234375 416.53515625 C-49.22048987 422.44005877 -46.40406502 426.51600142 -42.2734375 430.5703125 C-33.116538 438.04494236 -21.67689381 441.82015726 -9.96484375 440.91015625 C-1.85609789 439.44934402 5.84697211 436.14990533 10.89453125 429.4375 C13.21417035 425.68741679 15.15332005 422.25921206 16.03515625 417.91015625 C16.9065625 417.9565625 17.77796875 418.00296875 18.67578125 418.05078125 C32.53044845 418.47061965 42.57971531 415.14353267 53.03515625 405.91015625 C65.67239654 393.05872545 66.38755609 374.62439704 66.28515625 357.66015625 C66.29289063 356.36335938 66.300625 355.0665625 66.30859375 353.73046875 C66.27637522 337.91116982 62.50389113 326.8754355 51.453125 315.1953125 C44.2452394 308.38333661 35.45824853 303.05118701 26.03515625 299.91015625 C26.50965949 295.63962713 27.10303337 291.51429204 28.0546875 287.32421875 C33.20395239 261.83629721 25.60099257 234.63977326 12.03515625 212.91015625 C4.0579434 201.0624506 -5.96183952 193.29533406 -19.96484375 189.91015625 C-36.76303681 188.39585373 -50.47464357 192.8417346 -63.58984375 203.47265625 C-72.88398925 212.14170878 -79.25348055 224.42430249 -80.11914062 237.18457031 C-80.28394308 242.10251666 -80.1790443 246.99544365 -79.96484375 251.91015625 C-81.00382813 252.008125 -82.0428125 252.10609375 -83.11328125 252.20703125 C-91.29428954 253.05692966 -98.49678572 254.21203136 -105.96484375 257.91015625 C-106.61320417 256.16109094 -107.25843159 254.41086406 -107.90234375 252.66015625 C-108.26199219 251.685625 -108.62164063 250.71109375 -108.9921875 249.70703125 C-109.7786403 247.44558464 -110.43735976 245.24219073 -110.96484375 242.91015625 C-110.01222656 242.86117187 -109.05960938 242.8121875 -108.078125 242.76171875 C-106.19673828 242.64957031 -106.19673828 242.64957031 -104.27734375 242.53515625 C-102.41529297 242.43074219 -102.41529297 242.43074219 -100.515625 242.32421875 C-97.24764034 241.94313363 -94.87496441 241.41110902 -91.96484375 239.91015625 C-90.58359357 237.14765589 -90.77405069 234.96284526 -90.96484375 231.91015625 C-92.94744349 229.4628922 -92.94744349 229.4628922 -96.81640625 229.85546875 C-99.20012142 229.93133238 -101.57953011 230.03459554 -103.9609375 230.1640625 C-110.90126179 230.3597267 -115.54866868 228.42076389 -121.1015625 224.33984375 C-130.39904232 215.01894458 -133.37987234 203.66971944 -133.4074707 190.83911133 C-133.23022384 182.69324494 -130.71047554 176.13371513 -126.28125 169.3203125 C-124.42059594 165.91371441 -125.11289128 163.60195029 -125.96484375 159.91015625 C-126.97320437 158.67748277 -126.97320437 158.67748277 -129.03125 158.8125 C-129.85496094 158.82410156 -130.67867187 158.83570313 -131.52734375 158.84765625 C-132.35363281 158.85667969 -133.17992187 158.86570312 -134.03125 158.875 C-134.66933594 158.88660156 -135.30742188 158.89820313 -135.96484375 158.91015625 C-136.24328125 159.62429688 -136.52171875 160.3384375 -136.80859375 161.07421875 C-138.31957752 164.78021273 -140.03628573 168.3783902 -141.74609375 171.99609375 C-144.02188348 177.43756534 -145.10305375 182.12022845 -144.98657227 187.96313477 C-144.89449241 196.74382799 -144.89449241 196.74382799 -147.96875 200.09375 C-153.46670995 203.05677269 -157.99239127 203.48185427 -163.96484375 201.91015625 C-164.95484375 201.25015625 -165.94484375 200.59015625 -166.96484375 199.91015625 C-167.34579468 197.12174988 -167.34579468 197.12174988 -167.35302734 193.52026367 C-167.3582843 192.86476028 -167.36354126 192.2092569 -167.36895752 191.53388977 C-167.38219027 189.36089429 -167.37340556 187.18862831 -167.36328125 185.015625 C-167.36530179 183.50588337 -167.36821307 181.9961427 -167.37197876 180.48640442 C-167.37640713 177.31790907 -167.36995757 174.1496671 -167.35595703 170.98120117 C-167.33890839 166.9257562 -167.34867514 162.87090873 -167.36667442 158.81548595 C-167.3775361 155.6952925 -167.37405429 152.57523967 -167.36629105 149.45504189 C-167.36429333 147.96036012 -167.36673326 146.46566549 -167.37372971 144.97099876 C-167.38137883 142.87640187 -167.36969123 140.78275862 -167.35302734 138.68823242 C-167.35064056 137.49735519 -167.34825378 136.30647797 -167.34579468 135.07951355 C-166.55562661 128.50563551 -161.89809951 123.96599084 -156.96484375 119.91015625 C-147.925161 114.13068695 -139.43600923 110.33938972 -128.65234375 110.47265625 C-127.8221875 110.4773291 -126.99203125 110.48200195 -126.13671875 110.48681641 C-118.18363788 110.67757868 -111.6164297 112.47576561 -104.96484375 116.91015625 C-105.10559326 117.44600342 -105.24634277 117.98185059 -105.39135742 118.53393555 C-109.6681129 136.00473612 -107.28086681 152.6981923 -98.5859375 168.29296875 C-97.07942823 170.94809796 -97.07942823 170.94809796 -94.96484375 172.91015625 C-92.75411398 173.15269438 -92.75411398 173.15269438 -90.33984375 173.03515625 C-89.52257812 173.01710938 -88.7053125 172.9990625 -87.86328125 172.98046875 C-87.23679687 172.95726562 -86.6103125 172.9340625 -85.96484375 172.91015625 C-85.53800514 168.12956385 -85.43316764 165.21227733 -88.21484375 161.22265625 C-94.5578591 151.95209536 -96.22101568 140.92088774 -94.96484375 129.91015625 C-92.38064676 118.71680862 -86.60108617 110.08576399 -76.96484375 103.91015625 C-76.35640625 103.56597656 -75.74796875 103.22179687 -75.12109375 102.8671875 C-73.25178423 101.84235323 -73.25178423 101.84235323 -70.96484375 99.91015625 C-70.04799745 96.86640892 -70.04799745 96.86640892 -70.96484375 93.91015625 C-73.5766126 91.5288376 -75.18865406 90.92779692 -78.71484375 90.84765625 C-86.56682683 93.41465072 -92.46189524 98.9294598 -97.96484375 104.91015625 C-99.14046875 104.49765625 -100.31609375 104.08515625 -101.52734375 103.66015625 C-122.24743664 96.86188402 -137.77167784 95.99365221 -157.53442383 105.953125 C-160.90877655 107.70686451 -163.96169022 109.58789295 -166.96484375 111.91015625 C-167.04092648 104.45376117 -167.09345752 96.99746625 -167.12963867 89.54077148 C-167.14472238 87.0042751 -167.16519206 84.46780477 -167.19116211 81.93139648 C-167.22756256 78.28492803 -167.24457457 74.63880452 -167.2578125 70.9921875 C-167.27329636 69.85868362 -167.28878021 68.72517975 -167.30473328 67.55732727 C-167.30495987 66.49660507 -167.30518646 65.43588287 -167.30541992 64.34301758 C-167.31208176 63.41258133 -167.31874359 62.48214508 -167.3256073 61.52351379 C-166.89480676 58.40281093 -165.72964304 56.48858176 -163.96484375 53.91015625 C-162.0875599 56.72608202 -160.84564092 59.39396023 -159.46484375 62.47265625 C-152.68936272 76.0399842 -139.62946651 85.44528313 -125.4375 90.21875 C-111.11298003 94.22418449 -95.38231251 92.84551336 -82.15673828 85.97021484 C-79.47847282 84.46186953 -76.88634995 82.85978379 -74.3203125 81.16796875 C-73.54300781 80.75289063 -72.76570312 80.3378125 -71.96484375 79.91015625 C-68.55542129 81.0466304 -68.28781659 81.59660663 -66.40234375 84.47265625 C-58.73312001 95.01311646 -47.42939487 100.86741786 -34.96484375 103.91015625 C-31.13897359 104.29597206 -31.13897359 104.29597206 -27.27734375 104.28515625 C-25.99472656 104.31351562 -24.71210937 104.341875 -23.390625 104.37109375 C-19.92067414 104.18514959 -19.92067414 104.18514959 -17.5 102.08203125 C-15.64626044 99.92742397 -15.64626044 99.92742397 -16.08984375 96.78515625 C-16.74793199 93.81334252 -16.74793199 93.81334252 -18.96484375 91.91015625 C-21.29262884 91.70647505 -23.62896678 91.59637883 -25.96484375 91.53515625 C-38.0521121 90.98763925 -47.00309226 86.3462258 -55.41796875 77.7265625 C-57.45681325 75.3324648 -58.76459938 72.80486326 -59.96484375 69.91015625 C-59.34609375 69.28753906 -59.34609375 69.28753906 -58.71484375 68.65234375 C-47.37545757 56.55362368 -38.39572175 39.06327229 -38.69140625 22.1796875 C-39.08645726 18.90076412 -40.15819839 15.99837094 -41.40625 12.953125 C-42.08343185 10.47643893 -41.92220364 9.28190713 -40.96484375 6.91015625 C-30.97121697 -4.98701849 -13.29021932 -7.37171211 0 0 Z " fill="#FBFBFB" transform="translate(684.96484375,236.08984375)"/>
<path d="M0 0 C2.89930709 3.04709786 4.14796161 5.55792697 5.609375 9.484375 C10.8231628 22.66529922 25.34123237 30.88119492 37.4375 36.8125 C47.25883632 40.94482018 57.22850653 42.94768881 67.72436523 44.39526367 C83.59351685 46.59356349 93.87388587 50.15453159 106 61 C106.76054688 61.67804688 107.52109375 62.35609375 108.3046875 63.0546875 C124.25851965 78.1252625 134.59117645 98.80202606 135.47705078 120.74609375 C135.5332628 122.72218714 135.56994336 124.69894932 135.58544922 126.67578125 C135.60696045 128.03509766 135.60696045 128.03509766 135.62890625 129.421875 C135.6299939 130.63762207 135.6299939 130.63762207 135.63110352 131.87792969 C136.08992901 134.517315 136.89142218 135.39352471 139 137 C141.45709375 137.58350505 141.45709375 137.58350505 144 137 C146.31377147 135.10415891 146.31377147 135.10415891 148 133 C150.88961836 140.80196956 153.74973896 149.5831192 153 158 C152.175 158.804375 151.35 159.60875 150.5 160.4375 C147.7493134 162.7518464 147.7493134 162.7518464 147.59765625 165.84375 C148.09431978 169.73990661 149.3302506 171.17115664 151.9375 174.0625 C157.25101828 179.99452306 157.16298168 185.11911271 157.203125 192.75390625 C157.20882507 193.60943588 157.21452515 194.46496552 157.22039795 195.34642029 C157.22983341 197.16281915 157.23637615 198.97923502 157.24023438 200.7956543 C157.2497846 203.5014713 157.28075363 206.20647557 157.3125 208.91210938 C157.36837805 218.10583387 156.95784725 227.04891265 155.609375 236.15234375 C155.48427551 236.9981752 155.35917603 237.84400665 155.23028564 238.71546936 C154.60432656 242.54415711 154.20298078 244.69552883 152 248 C144.30434949 239.76744364 139.75774262 231.5120758 140.04296875 220.13671875 C140.06540525 218.75978081 140.08685522 217.38282651 140.10742188 216.00585938 C140.14404178 213.86468632 140.18645991 211.72438256 140.24682617 209.58374023 C141.00016467 181.47993782 127.79455398 158.40814031 108.875 138.4375 C101.21686719 130.95943394 92.79032602 124.85531362 82.375 121.9375 C77.29300953 120.49594192 77.29300953 120.49594192 75.89453125 118.12890625 C75.66121094 117.42636719 75.42789062 116.72382813 75.1875 116 C74.50143272 113.81241142 74.50143272 113.81241142 73 112 C70.0695423 110.89127906 67.17714605 110.17138151 64.12280273 109.49243164 C50.60095216 106.43084999 39.11864908 99.3652792 31.46875 87.65625 C28.14918082 81.30164615 27.18710721 75.08675765 28 68 C28.92131508 65.61541979 30.02063684 63.39578254 31.16796875 61.11328125 C32.51308251 57.69681861 32.01543116 55.48147828 31 52 C28.12529507 50.56264754 26.18105412 50.61827351 23 51 C17.83335382 55.55880545 15.3841466 62.68097337 14.609375 69.375 C14.17515475 83.5181737 19.81325393 95.39990838 29 106 C19.58739424 109.66045779 12.94913582 109.92587724 3.53515625 106.18359375 C-3.04472335 103.11163147 -6.56178529 98.12684801 -10.953125 92.546875 C-21.6263568 79.26644154 -36.65267155 69.47701401 -53.84765625 67.57421875 C-55.07355469 67.46722656 -56.29945313 67.36023438 -57.5625 67.25 C-63.46846682 66.55712121 -63.46846682 66.55712121 -65.78515625 64.12890625 C-66.68977748 62.5649401 -67.56432971 60.98324848 -68.41015625 59.38671875 C-73.40986877 51.88100782 -83.43548397 49.20035151 -91.796875 47.41015625 C-98.51608101 46.54977011 -104.33629418 46.97843805 -110.875 48.6875 C-111.57117432 48.86756592 -112.26734863 49.04763184 -112.98461914 49.2331543 C-122.74092676 51.88182832 -130.32746608 56.46245631 -138 63 C-138.99 63.825 -139.98 64.65 -141 65.5 C-143.56892749 68.71115936 -144 70.91528874 -144 75 C-142.09929642 78.06224465 -139.25027698 78.71699593 -136 80 C-133.45582395 85.08835211 -134.43599515 92.49255675 -135.6484375 97.8828125 C-141.51547374 115.08275636 -152.99169907 128.88094316 -168.93359375 137.60546875 C-181.01010343 143.31710509 -194.65125346 145.69379453 -207.59765625 141.10546875 C-219.55762502 135.60193841 -228.0320409 128.25566771 -233 116 C-235.17202665 108.86734474 -234.84660296 101.97096747 -231.75 95.1875 C-226.51587407 85.65169338 -218.19522873 75.04628779 -209 69 C-206.0625 68.625 -206.0625 68.625 -204 69 C-204.2165625 69.57105469 -204.433125 70.14210938 -204.65625 70.73046875 C-208.22264264 81.11593621 -208.41622329 91.83776128 -204 102 C-201.29601294 107.23376767 -198.51565439 112.12695796 -194 116 C-190.45749949 116.66676878 -190.45749949 116.66676878 -187 116 C-184.85217329 114.44202118 -184.85217329 114.44202118 -184 112 C-183.89376512 108.17554443 -185.61061818 106.07303394 -187.875 103.1875 C-192.83496957 96.79676998 -194.68369089 90.93734056 -194.40234375 82.80078125 C-193.19690069 74.40949316 -188.54043886 68.97136296 -182.28125 63.59375 C-178.34741954 60.84545749 -174.43062434 59.7713238 -169.75 58.9375 C-166.57842443 58.57232333 -166.57842443 58.57232333 -164 57 C-163.69476038 52.34911285 -163.69476038 52.34911285 -165 48 C-172.84212087 45.38595971 -179.77504607 47.53957214 -187 51 C-189.26491194 52.50504683 -191.36011986 54.08001751 -193.44140625 55.828125 C-195 57 -195 57 -197 57 C-197 55 -197 55 -195.70703125 53.66015625 C-195.08183594 53.13292969 -194.45664062 52.60570312 -193.8125 52.0625 C-193.07515625 51.43988281 -192.3378125 50.81726563 -191.578125 50.17578125 C-190.30195312 49.09876953 -190.30195312 49.09876953 -189 48 C-188.06671875 47.16855469 -187.1334375 46.33710938 -186.171875 45.48046875 C-146.02242343 9.93706046 -53.91131696 -26.04405018 0 0 Z " fill="#FBFBFB" transform="translate(768,172)"/>
<path d="M0 0 C11.6073671 3.68832226 20.89956562 8.82116379 28 19 C35.80901344 34.23048279 36.20193677 52.55484385 31.97265625 69.01953125 C28.89970511 78.43584337 24.49727977 85.70163214 15.875 90.875 C9.3752546 93.41837864 2.08884224 94.41162411 -4.625 92.09375 C-8.87331065 90.07321201 -12.32421696 87.84749482 -15.75 84.625 C-18.47377136 82.10110397 -18.47377136 82.10110397 -22.375 82.0625 C-24.89347388 82.75077844 -24.89347388 82.75077844 -26 84 C-26.50989541 89.66387275 -26.50989541 89.66387275 -24.375 94.75 C-21.76776501 97.22001209 -19.05762165 99.12373217 -16 101 C-16 104.31306572 -16.45242789 106.38206232 -18.671875 108.88671875 C-24.70490457 114.29603286 -29.22676116 116.50611546 -37.3828125 116.3125 C-44.88194935 115.41708067 -51.51236979 111.01100505 -57 106 C-60 101.875 -60 101.875 -60 99 C-63.41656024 98.83322718 -63.41656024 98.83322718 -67 99 C-69.3738267 100.96230213 -69.3738267 100.96230213 -69.4375 104.625 C-69.25564612 110.52990252 -66.43922127 114.60584517 -62.30859375 118.66015625 C-53.18662141 126.10627563 -41.68541429 129.96822004 -30 129 C-25.80403946 128.07688868 -21.7071374 126.97457269 -17.9609375 124.8359375 C-15.55255626 123.80925705 -14.41977229 124.13579561 -12 125 C-11.89042969 125.62648438 -11.78085937 126.25296875 -11.66796875 126.8984375 C-11.50941406 127.71570313 -11.35085938 128.53296875 -11.1875 129.375 C-11.03667969 130.18710937 -10.88585937 130.99921875 -10.73046875 131.8359375 C-10.12455058 134.35820641 -10.12455058 134.35820641 -7 136 C-2.07255009 135.77018752 0.62691378 134.14470983 4.4375 131.125 C8.55310272 128.0103387 12.05565336 125.5135755 17 124 C19.19140625 124.44140625 19.19140625 124.44140625 21 125 C13.73815947 130.7555903 6.37533958 136.22748349 -1.38623047 141.29370117 C-4.54142522 143.35394436 -7.65189173 145.4464974 -10.69921875 147.6640625 C-11.28703125 148.0880835 -11.87484375 148.51210449 -12.48046875 148.94897461 C-14.09096743 150.11746143 -15.69228125 151.29857748 -17.29296875 152.48046875 C-20 154 -20 154 -22.16015625 153.9296875 C-24.28675324 152.85510133 -25.58629535 151.64396341 -27.25 149.9375 C-38.40154075 139.71701768 -52.14531338 136.20093339 -66.87304688 136.79882812 C-70.40519432 137.13290635 -73.22445196 138.2770002 -76.2734375 140.02734375 C-78.15742286 141.08868392 -79.89194762 141.55888772 -82 142 C-82.4021875 140.63681641 -82.4021875 140.63681641 -82.8125 139.24609375 C-89.95673147 116.33285137 -102.30210903 98.59301771 -123.69140625 86.6328125 C-137.16049321 79.98573062 -153.90625475 73.5291039 -169 78 C-169.08096803 79.45742463 -169.13917774 80.91612807 -169.1875 82.375 C-169.22230469 83.18710937 -169.25710938 83.99921875 -169.29296875 84.8359375 C-169.19628906 85.55007813 -169.09960938 86.26421875 -169 87 C-165.39285747 89.40476169 -163.72338772 89.19451925 -159.4375 89.25 C-140.54284851 90.06695278 -122.87641513 99.37283982 -110 113 C-97.77616838 127.78060915 -92.59660222 145.23018856 -91 164 C-90.91492188 164.93328125 -90.82984375 165.8665625 -90.7421875 166.828125 C-89.99759623 183.01057528 -95.89727536 200.1216469 -106.25 212.4375 C-110.94246562 217.28903225 -116.09839407 220.77191261 -122 224 C-123.20849609 224.69222656 -123.20849609 224.69222656 -124.44140625 225.3984375 C-137.25371497 232.01512275 -151.99678516 233.34834917 -166.1875 233.4375 C-167.22600098 233.4475708 -168.26450195 233.4576416 -169.33447266 233.46801758 C-170.82986572 233.45097778 -170.82986572 233.45097778 -172.35546875 233.43359375 C-173.22840576 233.42384521 -174.10134277 233.41409668 -175.00073242 233.40405273 C-178 233 -178 233 -187 230 C-187 223.73 -187 217.46 -187 211 C-184.69 210.01 -182.38 209.02 -180 208 C-176.67215816 202.491848 -175.967836 196.29662718 -175 190 C-174.43265137 190.15936035 -173.86530273 190.3187207 -173.28076172 190.48291016 C-159.49813411 193.60768058 -145.02702856 191.21279114 -132.94921875 184.23828125 C-126.37851665 179.8548494 -121.93460994 174.81850019 -118 168 C-117.62875 167.35804688 -117.2575 166.71609375 -116.875 166.0546875 C-114.73693856 161.79765445 -114.75288805 158.54305066 -116 154 C-118.8078365 151.7427572 -118.8078365 151.7427572 -121.9453125 151.92578125 C-125.30001821 152.75599432 -125.30001821 152.75599432 -127.0546875 156.16796875 C-127.67650815 157.50089455 -128.28262246 158.84123072 -128.875 160.1875 C-133.52327546 169.71746984 -138.79754619 173.50002937 -148.703125 177.23828125 C-152.97875179 178.65621871 -156.71945044 179.21050896 -161.25 179.3125 C-162.86648438 179.36857422 -162.86648438 179.36857422 -164.515625 179.42578125 C-168.94376184 178.88467484 -172.52796829 177.89129491 -176 175 C-176.98210429 172.04080707 -177.36374689 170.08512152 -177.5625 167.0625 C-178.41444337 159.51895723 -180.14799814 152.67593816 -182.625 145.5 C-182.93896729 144.58613525 -183.25293457 143.67227051 -183.57641602 142.73071289 C-185.10320885 138.28834904 -185.10320885 138.28834904 -187 134 C-187.09202122 131.75335569 -187.11749805 129.50389567 -187.11352539 127.25537109 C-187.11367142 126.56257553 -187.11381744 125.86977997 -187.1139679 125.1559906 C-187.11327018 122.86177459 -187.10548442 120.56763936 -187.09765625 118.2734375 C-187.09579157 116.68445887 -187.0943679 115.09547966 -187.09336853 113.50650024 C-187.08954731 109.32090675 -187.07972039 105.13534787 -187.06866455 100.94976807 C-187.05844194 96.68005847 -187.05386909 92.4103433 -187.04882812 88.140625 C-187.03809778 79.76040077 -187.02102608 71.38020469 -187 63 C-185.89301758 63.48823242 -184.78603516 63.97646484 -183.64550781 64.47949219 C-178.49135363 66.62924254 -174.38245021 66.79415007 -169 65 C-166.46675324 66.17466712 -164.06703231 67.40882762 -161.625 68.75 C-141.58466437 79.1760252 -121.51531922 77.11829647 -100.578125 70.6796875 C-89.94225673 67.20929005 -78.88823551 62.75208287 -69.64453125 56.375 C-65.75062638 54.35039954 -61.73793912 53.89849846 -57.4375 53.1875 C-38.17393118 49.59466399 -25.19776538 38.76052207 -14 23 C-10.16287542 17.10360522 -6.57256522 11.05889829 -3 5 C-2.001261 3.33257738 -1.00195091 1.66549456 0 0 Z " fill="#FBFBFB" transform="translate(705,548)"/>
<path d="M0 0 C13.92267723 10.09455057 20.83206273 27.19798612 25.3125 43.3125 C25.55742188 44.1684375 25.80234375 45.024375 26.0546875 45.90625 C31.71006705 69.14753584 22.9944629 92.63358263 11.39208984 112.55322266 C8.40295201 117.42426001 4.92008353 121.89050608 1.3125 126.3125 C0.65378906 127.13621094 -0.00492188 127.95992187 -0.68359375 128.80859375 C-5.35594278 134.38344883 -10.56631871 138.41150127 -16.6875 142.3125 C-17.6875 140.3125 -17.6875 140.3125 -16.9453125 138.03515625 C-16.57148437 137.15730469 -16.19765625 136.27945313 -15.8125 135.375 C-13.83711921 130.68519735 -12.52021013 126.94052798 -12.4375 121.8125 C-12.41171875 120.8534375 -12.3859375 119.894375 -12.359375 118.90625 C-12.47867825 116.29239867 -12.47867825 116.29239867 -14.01171875 114.48828125 C-16.57537605 112.68953802 -18.6492185 112.98927856 -21.6875 113.3125 C-24.08931834 115.71431834 -24.14729716 117.44922357 -24.62353516 120.72070312 C-26.24793205 131.86664263 -30.17053644 138.95390388 -38.90625 146.27734375 C-60.07351192 161.76630929 -86.52610043 169.72115108 -112.6875 167.3125 C-116.73356904 166.49776255 -120.06071501 165.25887461 -123.6875 163.3125 C-124.97140625 162.65894531 -124.97140625 162.65894531 -126.28125 161.9921875 C-133.11489236 158.2254509 -139.53164245 153.3655122 -143.25 146.375 C-144.62806803 143.92547525 -144.62806803 143.92547525 -148.1875 143.375 C-151.80288937 142.9781442 -151.80288937 142.9781442 -154.6875 145.3125 C-155.05166047 147.74943311 -155.05166047 147.74943311 -154.875 150.4375 C-154.84792969 151.34757813 -154.82085938 152.25765625 -154.79296875 153.1953125 C-154.75816406 153.89398437 -154.72335937 154.59265625 -154.6875 155.3125 C-155.3475 155.3125 -156.0075 155.3125 -156.6875 155.3125 C-156.71082863 138.24949413 -156.72847899 121.18649322 -156.73931217 104.12347507 C-156.74447521 96.20137055 -156.75151805 88.27927591 -156.76293945 80.35717773 C-156.77288606 73.45475363 -156.77935337 66.55233669 -156.78158849 59.64990562 C-156.78289564 55.99289339 -156.78598174 52.33590164 -156.79323006 48.67889595 C-156.80124348 44.60305994 -156.80149115 40.52725987 -156.80102539 36.45141602 C-156.80462067 35.23006454 -156.80821594 34.00871307 -156.81192017 32.75035095 C-156.8105455 31.64672211 -156.80917084 30.54309326 -156.80775452 29.40602112 C-156.80867631 28.44090386 -156.8095981 27.47578661 -156.81054783 26.48142338 C-156.6875 24.3125 -156.6875 24.3125 -155.6875 23.3125 C-142.00447698 22.40029847 -128.3400734 26.79363943 -117.390625 35.04296875 C-112.12454564 39.96022661 -108.54435919 45.62758015 -108.25 52.9375 C-108.58796382 59.13702381 -111.54466853 63.1344703 -115.0625 68.0625 C-123.50931887 79.92019077 -127.49136795 91.73444484 -125.6875 106.3125 C-123.99395494 111.88568016 -121.73984914 116.21001184 -116.6875 119.3125 C-113.10350593 119.72942853 -113.10350593 119.72942853 -109.6875 119.3125 C-107.50418311 117.55113645 -107.50418311 117.55113645 -107.4921875 115.3671875 C-107.51539063 114.64789062 -107.53859375 113.92859375 -107.5625 113.1875 C-107.60375 111.90875 -107.645 110.63 -107.6875 109.3125 C-108.6775 108.9825 -109.6675 108.6525 -110.6875 108.3125 C-114.00203293 103.40208084 -114.47144484 99.03439627 -113.6875 93.3125 C-110.83987859 81.22354119 -102.51760893 69.23141458 -91.9453125 62.58984375 C-82.55636196 57.32256779 -73.61478316 55.41731619 -62.828125 57.99609375 C-53.89974739 61.33730339 -46.72551137 66.5171554 -42.6875 75.3125 C-41.81674053 77.98404476 -41.23081396 80.54653802 -40.6875 83.3125 C-36.6774066 83.49114631 -36.6774066 83.49114631 -32.6875 83.3125 C-30.37199829 80.99699829 -30.34571088 80.46532885 -30.25 77.3125 C-30.43301741 69.19437042 -35.06811523 61.95254773 -40.6875 56.3125 C-42.97629896 54.56914836 -45.38907789 53.0479967 -47.8125 51.5 C-52.78774794 48.1331131 -56.28968878 45.5787574 -57.5 39.38671875 C-57.561875 38.70222656 -57.62375 38.01773438 -57.6875 37.3125 C-57.81125 36.19875 -57.935 35.085 -58.0625 33.9375 C-56.76164843 21.36260152 -51.88305264 11.2046272 -42.1171875 3.06640625 C-28.87601232 -6.49193403 -14.16854522 -8.84329268 0 0 Z " fill="#FBFBFB" transform="translate(674.6875,443.6875)"/>
<path d="M0 0 C-0.66 0.804375 -1.32 1.60875 -2 2.4375 C-4.72209596 6.43438034 -4.37338272 10.33271604 -4 15 C-0.86731254 15.52211458 1.87711895 15.64021505 5 15 C7.24308805 13.22368172 9.00657351 11.23594806 10.921875 9.11328125 C16.16214207 3.78436305 22.05081528 1.70881188 29.4375 1.4375 C46.17669922 2.18320876 58.59530686 12.75940317 70 24 C70.65871094 24.64582031 71.31742188 25.29164063 71.99609375 25.95703125 C85.64774573 40.42841291 92.45128342 59.41163282 92.27734375 79.10546875 C91.39771748 91.45740388 85.64683401 99.99053734 76.7109375 108.06640625 C75 109 75 109 73.14453125 108.8359375 C70.41499449 107.77196506 67.89605013 106.44377059 65.3125 105.0625 C55.31258318 100.0202203 45.74093183 98.80497135 34.609375 100.5234375 C30.78202203 101.02878064 27.22985673 100.95541553 23.375 100.8125 C11.23842454 100.64193953 1.31832767 104.10895139 -8 112 C-9.6843143 113.64883015 -11.35519325 115.31175645 -13 117 C-13.38929688 115.8140625 -13.77859375 114.628125 -14.1796875 113.40625 C-17.6917454 103.11269259 -21.8825208 94.24178294 -27.9609375 85.22265625 C-29.67641519 82.51141277 -30.37638536 81.01059573 -31 78 C-30.0925 78.0825 -29.185 78.165 -28.25 78.25 C-25.03184892 78.28558612 -25.03184892 78.28558612 -23 76.5625 C-21.2684091 74.34389916 -19.81036829 72.12607053 -18.3125 69.75 C-12.7598148 61.26012615 -4.92888975 54.73222244 5 52.25 C13.35632402 51.55363966 20.51520615 52.19145992 28.10546875 56.078125 C30.88757082 57.43189013 32.95742276 57.38841412 36 57 C38.0785608 55.42304368 38.0785608 55.42304368 39 53 C39 49.6907884 38.34926933 48.38419626 36.125 45.9375 C26.17627558 39.76929086 14.19679287 37.20877685 2.7109375 39.71875 C-11.94609934 43.97512604 -23.3915478 51.50113319 -31 65 C-31.33 65 -31.66 65 -32 65 C-32.10957031 64.24976563 -32.21914063 63.49953125 -32.33203125 62.7265625 C-32.56986328 61.19128906 -32.56986328 61.19128906 -32.8125 59.625 C-33.06773437 57.97564453 -33.06773437 57.97564453 -33.328125 56.29296875 C-33.94685858 53.26045474 -34.87340265 50.77761329 -36.0625 47.9375 C-37.1377764 44.62691995 -37.22671639 43.48782628 -35.73828125 40.28515625 C-34.47839094 38.40192398 -33.18410897 36.54132175 -31.859375 34.703125 C-27.86772686 28.90014073 -26.96760148 23.15942705 -26.80444336 16.20703125 C-26.58061144 7.904172 -26.58061144 7.904172 -24.73828125 5.03515625 C-22.87160396 3.60360187 -21.20820476 2.80954149 -19 2 C-17.82630859 1.51660156 -17.82630859 1.51660156 -16.62890625 1.0234375 C-10.70424747 -1.10241511 -6.16206534 -1.09326966 0 0 Z " fill="#FBFBFB" transform="translate(804,303)"/>
<path d="M0 0 C1.8125 1.1875 1.8125 1.1875 3 3 C3.50286578 6.3763845 3.58226304 8.1898949 1.5625 11 C-1 13 -1 13 -3.05859375 14.26171875 C-13.1530837 20.47502201 -17.03885827 28.71355405 -20 40 C-20.59166666 42.74453776 -20.81969987 45.16027296 -21 48 C-21.06316406 48.78246094 -21.12632812 49.56492187 -21.19140625 50.37109375 C-21.80316417 63.65216095 -17.74787758 78.39486029 -8.84765625 88.42578125 C-3.36317386 93.71470673 2.55737192 97.22024566 9.3125 100.58984375 C12 102 12 102 14 104 C13.8668165 107.66254638 13.72325007 110.10984607 11.375 113 C7.93034613 114.45038058 5.44902245 114.12830474 2 113 C-12.61522652 106.72974509 -23.33743783 96.38086941 -29.9375 82 C-31 79 -31 79 -31 76 C-48.06667851 77.71434402 -63.99346344 83.2701781 -76 96 C-78.88182079 100.2541164 -79.7918353 102.80907972 -79 108 C-77.54283934 110.16104334 -75.9333934 112.13000734 -74.28125 114.14453125 C-73 116 -73 116 -72.9375 118.8125 C-74.77166437 122.58872077 -74.77166437 122.58872077 -77 124 C-80.25 124.6875 -80.25 124.6875 -84 124 C-88.51803059 120.31830505 -91.97751907 115.7940586 -93 110 C-93.7511754 102.36901184 -92.89435869 96.62530833 -89 90 C-88.41605469 89.00033203 -88.41605469 89.00033203 -87.8203125 87.98046875 C-77.86671227 73.0500684 -59.35426394 66.19487648 -42.58203125 62.62890625 C-39 62 -39 62 -35 62 C-35.04640625 60.741875 -35.0928125 59.48375 -35.140625 58.1875 C-35.63265509 39.06029978 -32.6979115 22.51692154 -19.15625 8.01171875 C-13.76457685 2.98144398 -7.6272207 -2.28816621 0 0 Z " fill="#030303" transform="translate(709,296)"/>
<path d="M0 0 C5.08263549 4.3217035 10.41189463 9.32434145 11.5 16.125 C11 19 11 19 9.375 21.375 C7 23 7 23 4.125 23.6875 C-0.53887304 22.66144793 -2.19822355 19.67446091 -5 16 C-11.97648383 8.30797937 -20.27936528 4.8899174 -30.5078125 3.7109375 C-45.63240159 3.17598419 -59.92120598 10.07837208 -71 20 C-72.21708431 21.28342433 -73.42584517 22.57480774 -74.625 23.875 C-77.12789029 26.44757633 -78.0916315 27.02950845 -81.6875 28.1875 C-85 28 -85 28 -87.5 26.5 C-89 24 -89 24 -89.1875 20.75 C-85.66492114 9.62606675 -73.55145753 2.28358579 -63.72485352 -2.96826172 C-43.20500255 -13.37814104 -19.09789033 -13.86831204 0 0 Z " fill="#020202" transform="translate(752,189)"/>
<path d="M0 0 C1.02132891 0.97820614 2.02941589 1.97142502 3 3 C-2.57233833 7.63995889 -8.17689183 12.17840009 -14 16.5 C-19.81899861 20.82482993 -25.41703266 25.37685512 -31 30 C-32.89535839 31.54225053 -34.79118905 33.08392086 -36.6875 34.625 C-41.21061524 38.32277669 -45.63843715 42.11333511 -50 46 C-50.66 45.67 -51.32 45.34 -52 45 C-51.67386719 44.30777344 -51.34773437 43.61554687 -51.01171875 42.90234375 C-46.22411866 32.18320373 -43.97585064 21.84314664 -43.85009766 10.16943359 C-43.6956941 -0.79321858 -43.6956941 -0.79321858 -41.41015625 -4.7578125 C-28.36827553 -16.72329999 -12.09025448 -9.10410729 0 0 Z " fill="#FAFAFA" transform="translate(670,708)"/>
<path d="M0 0 C15.03996613 7.64780147 24.32814211 20.06077265 29.8828125 35.71484375 C31.58910269 41.39885502 32.07505777 47.46791997 29.2578125 52.77734375 C26.34607892 55.15270536 24.63408376 55.71484375 20.8828125 55.71484375 C18.72265625 54.5859375 18.72265625 54.5859375 16.8828125 52.71484375 C16.44921875 50 16.44921875 50 16.4453125 46.77734375 C15.95742339 37.04124558 12.70607446 28.53379486 5.87890625 21.45703125 C-4.095375 12.75149419 -16.28261993 9.31271339 -29.33984375 9.18359375 C-32.83674205 8.59339994 -34.01857194 7.53140674 -36.1171875 4.71484375 C-36.1796875 1.15234375 -36.1796875 1.15234375 -35.1171875 -2.28515625 C-27.19860449 -10.46769203 -9.11686417 -3.75870716 0 0 Z " fill="#030303" transform="translate(853.1171875,235.28515625)"/>
<path d="M0 0 C0 2 0 2 -2.1015625 4.23046875 C-3.06509726 5.15637073 -4.03145012 6.07934544 -5 7 C-6.03089218 8.01464982 -7.05946347 9.03166202 -8.0859375 10.05078125 C-8.88849976 10.84572998 -8.88849976 10.84572998 -9.70727539 11.65673828 C-14.51070259 16.42570963 -19.2282576 21.18180897 -23.53515625 26.4140625 C-25.19745577 28.21377878 -27.00568593 29.58468034 -29 31 C-30.0828125 30.0409375 -30.0828125 30.0409375 -31.1875 29.0625 C-36.08961989 25.70342027 -42.26333164 26.17022755 -48 26 C-47.98259766 24.33710937 -47.98259766 24.33710937 -47.96484375 22.640625 C-47.95546208 21.17708502 -47.94636229 19.71354322 -47.9375 18.25 C-47.92912109 17.52039063 -47.92074219 16.79078125 -47.91210938 16.0390625 C-47.89608316 12.51329442 -48.04707287 9.38965084 -49 6 C-48.02111816 5.98598145 -48.02111816 5.98598145 -47.02246094 5.97167969 C-31.31634458 5.69111509 -14.95894102 0 0 0 Z " fill="#F7F6F7" transform="translate(578,788)"/>
<path d="M0 0 C1.99145272 2.58600237 3.74351882 5.21363843 5.4375 8 C7.39321565 11.06395452 9.42858335 13.47073745 12.1640625 15.83203125 C15.49330721 18.72455176 18.39648116 21.41233315 21 25 C21.41111467 31.34943762 18.55802175 36.86667091 15 42 C11.52674819 43.1577506 8.63932552 43.06866652 5 43 C4.70867188 42.04480469 4.41734375 41.08960938 4.1171875 40.10546875 C0.91940588 29.91014182 -2.74243884 20.09497206 -10 12 C-8.49433536 8.1673991 -6.19742787 6.49555346 -3 4 C-1.23676495 1.87396815 -1.23676495 1.87396815 0 0 Z " fill="#F9F9F9" transform="translate(898,412)"/>
<path d="M0 0 C0.69738281 0.00451172 1.39476562 0.00902344 2.11328125 0.01367188 C3.82555803 0.0253998 5.53779033 0.04333347 7.25 0.0625 C2.49220649 5.78409091 -2.60198431 11.06529026 -7.875 16.3125 C-8.67292969 17.11429688 -9.47085938 17.91609375 -10.29296875 18.7421875 C-11.06511719 19.51304687 -11.83726562 20.28390625 -12.6328125 21.078125 C-13.32777832 21.77196289 -14.02274414 22.46580078 -14.73876953 23.18066406 C-16.68240607 24.99925479 -18.48102926 26.66541556 -20.75 28.0625 C-21.74 27.7325 -22.73 27.4025 -23.75 27.0625 C-25.84371242 22.54448898 -26.47428059 17.97998398 -25.75 13.0625 C-23.39177623 6.73817262 -20.22707953 4.78822868 -14.1875 2.0078125 C-9.37948559 0.14316589 -5.13879675 -0.06314212 0 0 Z " fill="#F9F9F9" transform="translate(830.75,576.9375)"/>
<path d="M0 0 C15.7233117 3.39199533 36.88235127 10.89113922 48 23 C31.53563236 22.66274107 15.90904649 16.64917631 3.55859375 5.7109375 C1.92261028 3.91504588 0.97241514 2.21575191 0 0 Z " fill="#F6F6F6" transform="translate(789,178)"/>
<path d="M0 0 C1.22589844 0.01353516 1.22589844 0.01353516 2.4765625 0.02734375 C3.41628906 0.04474609 3.41628906 0.04474609 4.375 0.0625 C4.375 4.30203868 1.99673744 6.4709538 -0.5625 9.625 C-1.30487915 10.5523999 -1.30487915 10.5523999 -2.06225586 11.49853516 C-11.26825799 22.90683839 -11.26825799 22.90683839 -15.625 27.0625 C-16.285 27.0625 -16.945 27.0625 -17.625 27.0625 C-19.18438698 22.38433907 -19.46370553 17.93108333 -18.625 13.0625 C-16.71164067 10.1628174 -14.32495848 8.21350427 -11.625 6.0625 C-10.67456704 5.11699156 -9.73528234 4.16001313 -8.8125 3.1875 C-5.72737222 0.19051873 -4.18202392 -0.0597432 0 0 Z " fill="#F5F5F5" transform="translate(535.625,827.9375)"/>
<path d="M0 0 C2.40804568 2.40804568 3.00768759 4.42203775 4.125 7.625 C4.47820313 8.62789063 4.83140625 9.63078125 5.1953125 10.6640625 C5.46085938 11.43492187 5.72640625 12.20578125 6 13 C4.72125 12.7009375 3.4425 12.401875 2.125 12.09375 C-3.73718275 10.78900086 -9.65059742 9.9583393 -15.59765625 9.14453125 C-16.41105469 9.02464844 -17.22445312 8.90476562 -18.0625 8.78125 C-18.79597656 8.67876953 -19.52945313 8.57628906 -20.28515625 8.47070312 C-20.85105469 8.31537109 -21.41695312 8.16003906 -22 8 C-22.33 7.34 -22.66 6.68 -23 6 C-21.87464844 6.19529297 -21.87464844 6.19529297 -20.7265625 6.39453125 C-12.8679725 7.45356038 -7.54453754 6.65114932 -1 2 C-0.67 1.34 -0.34 0.68 0 0 Z " fill="#EFEFEF" transform="translate(540,445)"/>
<path d="M0 0 C0.88300781 0.36222656 1.76601563 0.72445313 2.67578125 1.09765625 C3.67158203 1.51337891 3.67158203 1.51337891 4.6875 1.9375 C4.6875 2.5975 4.6875 3.2575 4.6875 3.9375 C0.91708465 3.20436368 -2.82551263 2.38822483 -6.5625 1.5 C-7.61953125 1.25378906 -8.6765625 1.00757813 -9.765625 0.75390625 C-11.02632812 0.34978516 -11.02632812 0.34978516 -12.3125 -0.0625 C-12.6425 -0.7225 -12.9725 -1.3825 -13.3125 -2.0625 C-8.40384492 -3.69871836 -4.63862369 -1.91729779 0 0 Z " fill="#CACACA" transform="translate(817.3125,290.0625)"/>
<path d="M0 0 C0.90105469 0.11085938 1.80210937 0.22171875 2.73046875 0.3359375 C3.76107422 0.47902344 3.76107422 0.47902344 4.8125 0.625 C4.4825 1.615 4.1525 2.605 3.8125 3.625 C-2.1275 2.635 -2.1275 2.635 -8.1875 1.625 C-4.73535147 -0.67643236 -3.95270676 -0.51333854 0 0 Z " fill="#D8D8D8" transform="translate(560.1875,623.375)"/>
<path d="M0 0 C2.31 0 4.62 0 7 0 C7.33 0.99 7.66 1.98 8 3 C5.03 3 2.06 3 -1 3 C-0.67 2.01 -0.34 1.02 0 0 Z " fill="#D6D6D7" transform="translate(531,811)"/>
<path d="M0 0 C0.33 0.66 0.66 1.32 1 2 C-1.64 2 -4.28 2 -7 2 C-7.33 1.34 -7.66 0.68 -8 0 C-4.69693408 -1.10102197 -3.28414305 -0.95067299 0 0 Z " fill="#EDEDED" transform="translate(812,288)"/>
<path d="M0 0 C1.32 0.33 2.64 0.66 4 1 C4 1.66 4 2.32 4 3 C2.02 3.99 0.04 4.98 -2 6 C-1.34 4.02 -0.68 2.04 0 0 Z " fill="#EAEAE9" transform="translate(659,580)"/>
</svg>
